# xmcd
#
# Track frame offsets:
#	150
#	16914
#	30836
#	47879
#	63619
#	81195
#	98356
#	111964
#	126858
#	141010
#	154570
#	172435
#	190035
#	207419
#
# Disc length: 2966 seconds
#
# Revision: 1
# Processed by: cddbd v1.5.2PL0 Copyright (c) Steve Scherf et al.
# Submitted via: audiograbber 1.83.01
#
DISCID=b80b940e
DTITLE=Various Artist - Hot Hits Country Volume 102
DYEAR=1900
DGENRE=Country
TTITLE0=John Michael Montgomery - The Little Girl
TTITLE1=Steve Wariner - Garth Brooks - Katie Wants A Fast One
TTITLE2=Brad Paisley - We Danced
TTITLE3=Reba McEntire - We're So Good Together
TTITLE4=Kenny Chesney - I Lost It
TTITLE5=Eric Heatherly - Swimming In Champagne
TTITLE6=Trace Adkins - I'm Gonna Love You Anyway
TTITLE7=Mark Willis - Everything There Is To Know About You
TTITLE8=Ricochet - She's Gone
TTITLE9=Gary Allan - Right Where I Need To Be
TTITLE10=Chris LeDoux - Silence On The Line
TTITLE11=Jamie O'Neal - There Is No Arizona
TTITLE12=Neal McCoy - Every Man For Himself
TTITLE13=Chad Brock - The Visist
EXTD=
EXTT0=
EXTT1=
EXTT2=
EXTT3=
EXTT4=
EXTT5=
EXTT6=
EXTT7=
EXTT8=
EXTT9=
EXTT10=
EXTT11=
EXTT12=
EXTT13=
PLAYORDER=
